HIERARCHY
ROOT Hips
{
	OFFSET 0.000000 0.000000 0.000000
	CHANNELS 6 Xposition Yposition Zposition Zrotation Yrotation Xrotation 
	JOINT LHipJoint
	{
		OFFSET 0.000000 0.000000 0.000000
		CHANNELS 3 Zrotation Yrotation Xrotation
		JOINT LeftUpLeg
		{
			OFFSET 1.363060 -1.794630 0.839290
			CHANNELS 3 Zrotation Yrotation Xrotation
			JOINT LeftLeg
			{
				OFFSET 2.448110 -6.726130 0.000000
				CHANNELS 3 Zrotation Yrotation Xrotation
				JOINT LeftFoot
				{
					OFFSET 2.562200 -7.039590 0.000000
					CHANNELS 3 Zrotation Yrotation Xrotation
					JOINT LeftToeBase
					{
						OFFSET 0.157640 -0.433110 2.322550
						CHANNELS 3 Zrotation Yrotation Xrotation
						End Site
						{
							OFFSET 0.000000 0.000000 0.000000
						}
					}
				}
			}
		}
	}
	JOINT RHipJoint
	{
		OFFSET 0.000000 0.000000 0.000000
		CHANNELS 3 Zrotation Yrotation Xrotation
		JOINT RightUpLeg
		{
			OFFSET -1.305520 -1.794630 0.839290
			CHANNELS 3 Zrotation Yrotation Xrotation
			JOINT RightLeg
			{
				OFFSET -2.542530 -6.985550 0.000000
				CHANNELS 3 Zrotation Yrotation Xrotation
				JOINT RightFoot
				{
					OFFSET -2.568260 -7.056230 0.000000
					CHANNELS 3 Zrotation Yrotation Xrotation
					JOINT RightToeBase
					{
						OFFSET -0.164730 -0.452590 2.363150
						CHANNELS 3 Zrotation Yrotation Xrotation
						End Site
						{
							OFFSET 0.000000 0.000000 0.000000
						}
					}
				}
			}
		}
	}
	JOINT LowerBack
	{
		OFFSET 0.000000 0.000000 0.000000
		CHANNELS 3 Zrotation Yrotation Xrotation
		JOINT Spine
		{
			OFFSET 0.028270 2.035590 -0.193380
			CHANNELS 3 Zrotation Yrotation Xrotation
			JOINT Spine1
			{
				OFFSET 0.056720 2.048850 -0.042750
				CHANNELS 3 Zrotation Yrotation Xrotation
				JOINT Neck
				{
					OFFSET 0.000000 0.000000 0.000000
					CHANNELS 3 Zrotation Yrotation Xrotation
					JOINT Neck1
					{
						OFFSET -0.054170 1.746240 0.172020
						CHANNELS 3 Zrotation Yrotation Xrotation
						JOINT Head
						{
							OFFSET 0.104070 1.761360 -0.123970
							CHANNELS 3 Zrotation Yrotation Xrotation
							End Site
							{
								OFFSET 0.000000 0.000000 0.000000
							}
						}
					}
				}
				JOINT LeftShoulder
				{
					OFFSET 0.000000 0.000000 0.000000
					CHANNELS 3 Zrotation Yrotation Xrotation
					JOINT LeftArm
					{
						OFFSET 3.362410 1.200890 -0.311210
						CHANNELS 3 Zrotation Yrotation Xrotation
						JOINT LeftForeArm
						{
							OFFSET 4.983000 -0.000000 -0.000000
							CHANNELS 3 Zrotation Yrotation Xrotation
							JOINT LeftHand
							{
								OFFSET 3.483560 -0.000000 -0.000000
								CHANNELS 3 Zrotation Yrotation Xrotation
								JOINT LeftFingerBase
								{
									OFFSET 0.000000 0.000000 0.000000
									CHANNELS 3 Zrotation Yrotation Xrotation
									JOINT LeftHandIndex1
									{
										OFFSET 0.715260 -0.000000 -0.000000
										CHANNELS 3 Zrotation Yrotation Xrotation
										End Site
										{
											OFFSET 0.000000 0.000000 0.000000
										}
									}
								}
								JOINT LThumb
								{
									OFFSET 0.000000 0.000000 0.000000
									CHANNELS 3 Zrotation Yrotation Xrotation
									End Site
									{
										OFFSET 0.000000 0.000000 0.000000
									}
								}
							}
						}
					}
				}
				JOINT RightShoulder
				{
					OFFSET 0.000000 0.000000 0.000000
					CHANNELS 3 Zrotation Yrotation Xrotation
					JOINT RightArm
					{
						OFFSET -3.136600 1.374050 -0.404650
						CHANNELS 3 Zrotation Yrotation Xrotation
						JOINT RightForeArm
						{
							OFFSET -5.241900 -0.000000 -0.000000
							CHANNELS 3 Zrotation Yrotation Xrotation
							JOINT RightHand
							{
								OFFSET -3.444170 -0.000000 -0.000000
								CHANNELS 3 Zrotation Yrotation Xrotation
								JOINT RightFingerBase
								{
									OFFSET 0.000000 0.000000 0.000000
									CHANNELS 3 Zrotation Yrotation Xrotation
									JOINT RightHandIndex1
									{
										OFFSET -0.622530 -0.000000 -0.000000
										CHANNELS 3 Zrotation Yrotation Xrotation
										End Site
										{
											OFFSET 0.000000 0.000000 0.000000
										}
									}
								}
								JOINT RThumb
								{
									OFFSET 0.000000 0.000000 0.000000
									CHANNELS 3 Zrotation Yrotation Xrotation
									End Site
									{
										OFFSET 0.000000 0.000000 0.000000
									}
								}
							}
						}
					}
				}
			}
		}
	}
}
MOTION
Frames: 11
Frame Time: 0.008333
5.297291 17.382477 0.480036 4.022364 -66.464801 7.389569 -10.333086 1.150155 3.137516 -5.857461 0.945214 -14.823134 -2.718195 -1.533643 -2.985054 -0.464112 -1.860259 6.996127 0.043400 0.000000 -30.691600 9.848893 -2.530649 0.975912 7.698151 -9.847612 -9.460162 1.755127 1.264266 -1.111776 -1.533478 -15.123334 -5.439014 -3.237700 0.000001 -25.004600 -3.566094 3.404159 -4.331701 -1.008490 3.708729 -4.347037 -1.475609 3.764799 -3.349530 -2.634276 9.249304 2.438907 -0.802923 -0.226152 2.778691 0.000000 0.000000 0.000000 1.660482 6.263192 -8.452377 -85.956494 -63.279801 14.464706 174.071468 -50.261031 179.506658 27.397141 -18.942888 -5.096679 -0.383613 1.420568 -0.000000 0.000000 0.000000 0.000000 0.000000 0.000000 0.000000 -10.569065 12.383573 3.530901 42.641821 52.126238 -29.852085 -0.469570 3.278788 -0.011679 -2.056820 -7.360182 0.133735 0.057838 -0.110747 0.000000 0.000000 0.000000 0.000000 0.000000 0.000000 0.000000 
5.300717 17.381992 0.486912 3.999956 -67.056934 7.249669 -10.365714 1.179292 3.078791 -5.857848 1.285783 -14.651992 -2.698739 -1.519535 -2.913465 -0.437449 -1.678828 6.830417 0.080700 0.000000 -30.701100 9.827508 -2.528817 0.985910 7.649803 -9.755732 -9.330711 1.778069 1.262400 -1.103817 -1.492179 -14.777824 -5.332520 -3.183000 0.000000 -25.220301 -3.492591 3.323352 -4.314512 -1.026445 3.617033 -4.358808 -1.641964 3.676070 -3.407909 -2.276354 9.092510 2.479872 -0.860582 -0.230138 2.788611 0.000000 0.000000 0.000000 1.957258 6.213212 -8.357646 -85.545043 -63.399747 13.830642 174.089053 -50.599664 179.503806 27.675194 -18.780093 -5.106838 -0.389620 1.414765 -0.000000 0.000000 0.000000 0.000000 0.000000 0.000000 0.000000 -10.050367 12.222967 3.363842 44.423770 51.981099 -27.229174 -0.492627 5.252474 -0.007145 -1.150347 -7.394532 0.075275 0.035521 -0.116885 0.000000 0.000000 0.000000 0.000000 0.000000 0.000000 0.000000 
5.303041 17.382110 0.495379 3.980689 -67.667708 7.124724 -10.395957 1.214395 3.030733 -5.870289 1.650181 -14.515524 -2.683606 -1.508080 -2.840428 -0.412971 -1.514494 6.668746 0.113700 0.000000 -30.687900 9.810259 -2.531555 1.009977 7.601258 -9.685282 -9.233778 1.805848 1.264781 -1.119285 -1.449678 -14.391582 -5.191041 -3.123499 0.000000 -25.482700 -3.419940 3.238433 -4.333344 -1.041461 3.521600 -4.375244 -1.797623 3.582858 -3.456018 -1.928832 8.892533 2.531423 -0.912443 -0.234021 2.802140 0.000000 0.000000 0.000000 2.254131 6.161097 -8.273109 -85.191165 -63.511642 13.235216 174.116563 -50.983286 179.501949 27.885313 -18.549956 -5.085181 -0.393832 1.407052 -0.000000 0.000000 0.000000 0.000000 0.000000 0.000000 0.000000 -9.576821 12.028212 3.188613 46.085357 51.679464 -24.034589 -0.486151 7.622509 -0.002316 -0.135605 -7.843932 0.010024 0.013859 -0.117029 -0.000000 0.000000 0.000000 0.000000 0.000000 0.000000 0.000000 
5.304245 17.382719 0.505342 3.966245 -68.289493 7.010767 -10.423459 1.255007 2.994830 -5.891591 2.019701 -14.399848 -2.671723 -1.499676 -2.780239 -0.389746 -1.355693 6.515459 0.145201 0.000000 -30.652600 9.796712 -2.537878 1.045808 7.551072 -9.632553 -9.163749 1.836984 1.270546 -1.153343 -1.406158 -13.977033 -5.021189 -3.061000 0.000000 -25.789600 -3.347802 3.148726 -4.385262 -1.053164 3.421718 -4.395590 -1.941974 3.484475 -3.493461 -1.590299 8.655011 2.596083 -0.959935 -0.237909 2.819879 0.000000 0.000000 0.000000 2.535281 6.104181 -8.198042 -84.882694 -63.626500 12.686332 174.158128 -51.408107 179.501156 28.014391 -18.277559 -5.036009 -0.395945 1.398257 -0.000000 0.000000 0.000000 0.000000 0.000000 0.000000 0.000000 -9.132585 11.800503 3.005504 47.539041 51.274200 -20.634899 -0.468260 10.268203 0.002616 0.877196 -8.508207 -0.064824 -0.006296 -0.114400 -0.000000 0.000000 0.000000 0.000000 0.000000 0.000000 0.000000 
5.304567 17.383651 0.516636 3.956855 -68.915242 6.904611 -10.448387 1.300173 2.969605 -5.921283 2.389859 -14.302996 -2.662779 -1.493661 -2.730328 -0.367899 -1.205802 6.368358 0.174500 -0.000000 -30.598200 9.786160 -2.546387 1.091737 7.498580 -9.590297 -9.115836 1.869772 1.279197 -1.201828 -1.362558 -13.549491 -4.831224 -2.997400 -0.000000 -26.133600 -3.274957 3.053043 -4.465056 -1.060368 3.316220 -4.419611 -2.071528 3.379928 -3.524549 -1.264282 8.399916 2.676886 -1.001886 -0.241778 2.842619 0.000000 0.000000 0.000000 2.795657 6.037253 -8.129050 -84.600481 -63.741771 12.173554 174.211128 -51.857965 179.501394 28.068609 -17.965576 -4.961625 -0.396246 1.388460 -0.000000 0.000000 0.000000 0.000000 0.000000 0.000000 0.000000 -8.721272 11.555663 2.812109 48.755802 50.793992 -17.330267 -0.457518 13.127192 0.007559 1.820529 -9.241449 -0.147274 -0.024980 -0.111485 0.000000 0.000000 0.000000 0.000000 0.000000 0.000000 0.000000 
5.304107 17.384733 0.529059 3.956337 -69.540187 6.802694 -10.471089 1.348580 2.952923 -5.957930 2.752309 -14.218100 -2.656000 -1.489578 -2.692431 -0.346892 -1.060801 6.225983 0.202300 0.000000 -30.528200 9.777646 -2.555506 1.145140 7.442625 -9.548952 -9.083696 1.902389 1.290038 -1.260617 -1.320160 -13.124151 -4.629230 -2.934799 -0.000000 -26.507600 -3.199552 2.951181 -4.564883 -1.063128 3.204708 -4.446228 -2.188071 3.269039 -3.552310 -0.952338 8.124233 2.771225 -1.040223 -0.245679 2.869524 0.000000 0.000000 0.000000 3.031347 5.960016 -8.064625 -84.328006 -63.860916 11.691300 174.274056 -52.319877 179.502493 28.058315 -17.632825 -4.869833 -0.395045 1.378250 -0.000000 0.000000 0.000000 0.000000 0.000000 0.000000 0.000000 -8.332592 11.284954 2.605250 49.732871 50.308141 -14.297348 -0.469749 16.095402 0.012389 2.625346 -9.874820 -0.227728 -0.042224 -0.110953 0.000000 0.000000 0.000000 0.000000 0.000000 0.000000 0.000000 
5.303090 17.385774 0.542397 3.969109 -70.161662 6.699576 -10.492156 1.398584 2.941536 -6.000263 3.101967 -14.139341 -2.650629 -1.486725 -2.665842 -0.326234 -0.917816 6.086140 0.229301 0.000000 -30.445900 9.770096 -2.563455 1.203152 7.381746 -9.498025 -9.060683 1.933088 1.302324 -1.325738 -1.279983 -12.714668 -4.423334 -2.874800 -0.000000 -26.903700 -3.119335 2.843316 -4.675399 -1.060931 3.087219 -4.474420 -2.291259 3.152085 -3.581598 -0.660842 7.832872 2.876404 -1.074120 -0.249514 2.899798 0.000000 0.000000 0.000000 3.239048 5.872400 -8.001668 -84.045654 -63.984681 11.226601 174.343410 -52.778680 179.504203 28.001210 -17.295103 -4.768538 -0.392798 1.368050 -0.000000 0.000000 0.000000 0.000000 0.000000 0.000000 0.000000 -7.976278 10.990312 2.380514 50.512719 49.853642 -11.648136 -0.517415 19.118928 0.017044 3.244977 -10.305932 -0.294388 -0.058363 -0.114634 0.000000 0.000000 0.000000 0.000000 0.000000 0.000000 0.000000 
5.301981 17.386579 0.556398 3.995772 -70.778852 6.590851 -10.512183 1.448396 2.932057 -6.046953 3.435497 -14.061166 -2.645816 -1.484436 -2.649615 -0.305340 -0.772872 5.946394 0.256200 -0.000000 -30.355101 9.762454 -2.568658 1.263150 7.314846 -9.427362 -9.040645 1.960410 1.315223 -1.392982 -1.243027 -12.332581 -4.220973 -2.819100 0.000000 -27.314700 -3.033333 2.730204 -4.787667 -1.054030 2.964410 -4.503191 -2.382818 3.029934 -3.616692 -0.391748 7.524634 2.988984 -1.103981 -0.253240 2.932418 0.000000 0.000000 0.000000 3.420996 5.774708 -7.937896 -83.740157 -64.112782 10.770935 174.415986 -53.221500 179.506240 27.915395 -16.972935 -4.666943 -0.389933 1.358461 -0.000000 0.000000 0.000000 0.000000 0.000000 0.000000 0.000000 -7.653485 10.668872 2.134225 51.138255 49.457461 -9.395709 -0.605627 22.161470 0.021357 3.636606 -10.459742 -0.335353 -0.073453 -0.124014 0.000000 0.000000 0.000000 0.000000 0.000000 0.000000 0.000000 
5.300915 17.387027 0.570897 4.039903 -71.391999 6.473203 -10.531608 1.496794 2.921587 -6.097139 3.751756 -13.979661 -2.641009 -1.482236 -2.642574 -0.283740 -0.622752 5.805083 0.283500 0.000000 -30.259000 9.754046 -2.570017 1.323466 7.240954 -9.327957 -9.019619 1.983265 1.328166 -1.459083 -1.209883 -11.985910 -4.028184 -2.768800 -0.000000 -27.733100 -2.942088 2.612475 -4.894646 -1.043169 2.836899 -4.531502 -2.465248 2.903334 -3.659613 -0.144919 7.190137 3.103949 -1.131011 -0.256837 2.965936 0.000000 0.000000 0.000000 3.583648 5.669993 -7.872038 -83.404947 -64.244471 10.319313 174.488701 -53.639100 179.508272 27.819782 -16.687128 -4.574052 -0.386869 1.350090 -0.000000 0.000000 0.000000 0.000000 0.000000 0.000000 0.000000 -7.360659 10.309675 1.863586 51.650912 49.146908 -7.502756 -0.733052 25.193450 0.025021 3.769967 -10.286295 -0.342121 -0.087389 -0.140176 0.000000 0.000000 0.000000 0.000000 0.000000 0.000000 0.000000 
5.300101 17.387029 0.585697 4.103050 -72.002606 6.343957 -10.550805 1.542767 2.907747 -6.150081 4.051848 -13.892832 -2.635865 -1.479778 -2.643465 -0.261173 -0.466080 5.660574 0.311400 0.000000 -30.160199 9.744381 -2.566792 1.382845 7.159465 -9.193724 -8.994921 2.001076 1.340658 -1.520790 -1.180722 -11.678638 -3.849595 -2.724499 0.000000 -28.152200 -2.846012 2.490753 -4.991115 -1.028712 2.705331 -4.558681 -2.539608 2.773013 -3.712102 0.078948 6.827694 3.217434 -1.155171 -0.260239 2.999267 0.000000 0.000000 0.000000 3.733524 5.562754 -7.802581 -83.035498 -64.377187 9.865514 174.558133 -54.020062 179.510018 27.729801 -16.454668 -4.496868 -0.383946 1.343439 -0.000000 0.000000 0.000000 0.000000 0.000000 0.000000 0.000000 -7.101571 9.910454 1.566856 52.095199 48.926362 -5.937629 -0.894105 28.215519 0.027641 3.639356 -9.784626 -0.314395 -0.100110 -0.163479 0.000000 0.000000 0.000000 0.000000 0.000000 0.000000 0.000000 
5.299631 17.386601 0.600698 4.185661 -72.611448 6.202130 -10.569980 1.585823 2.889055 -6.205056 4.337270 -13.799446 -2.630126 -1.476823 -2.651754 -0.237428 -0.301280 5.513250 0.340100 -0.000000 -30.061300 9.733249 -2.558631 1.440342 7.070716 -9.022682 -8.966398 2.013894 1.352302 -1.574948 -1.155013 -11.410234 -3.687961 -2.686400 -0.000000 -28.566200 -2.746136 2.365342 -5.073780 -1.011468 2.570004 -4.583827 -2.608442 2.639262 -3.772925 0.281614 6.426887 3.324252 -1.177683 -0.263427 3.030952 0.000000 0.000000 0.000000 3.877063 5.459713 -7.729795 -82.635076 -64.510892 9.410931 174.622452 -54.360438 179.511255 27.657012 -16.290291 -4.441092 -0.381391 1.338930 -0.000000 0.000000 0.000000 0.000000 0.000000 0.000000 0.000000 -6.872189 9.459691 1.244444 52.507557 48.807629 -4.645221 -1.078405 31.224678 0.028713 3.257710 -8.979476 -0.258472 -0.111440 -0.193675 -0.000000 0.000000 0.000000 0.000000 0.000000 0.000000 0.000000 
